<mxfile host="app.diagrams.net" modified="2021-11-15T01:04:50.062Z" agent="5.0 (Windows NT 10.0; Win64; x64) AppleWebKit/537.36 (KHTML, like Gecko) Chrome/95.0.4638.69 Safari/537.36" etag="ZDJOh5jLASVZbYx-jVpI" version="15.5.7" type="github">
  <diagram id="Oo7I0A55y4OFaoobAOjL" name="Page-1">
    <mxGraphModel dx="2073" dy="912" grid="0" gridSize="10" guides="1" tooltips="1" connect="1" arrows="1" fold="1" page="0" pageScale="1" pageWidth="827" pageHeight="1169" math="0" shadow="0">
      <root>
        <mxCell id="0" />
        <mxCell id="1" parent="0" />
        <mxCell id="DORprSOkZNdKOaUMTTgd-1" value="Start" style="ellipse;whiteSpace=wrap;html=1;aspect=fixed;" vertex="1" parent="1">
          <mxGeometry x="-160" y="384.5" width="80" height="80" as="geometry" />
        </mxCell>
        <mxCell id="DORprSOkZNdKOaUMTTgd-8" value="Stato-Ciclo-Semaforo-Verde" style="ellipse;whiteSpace=wrap;html=1;aspect=fixed;" vertex="1" parent="1">
          <mxGeometry x="118" y="347" width="155" height="155" as="geometry" />
        </mxCell>
        <mxCell id="DORprSOkZNdKOaUMTTgd-9" value="Stato-Ciclo-Semaforo-Rosso" style="ellipse;whiteSpace=wrap;html=1;aspect=fixed;" vertex="1" parent="1">
          <mxGeometry x="1137" y="340.5" width="168" height="168" as="geometry" />
        </mxCell>
        <mxCell id="DORprSOkZNdKOaUMTTgd-10" value="Stato-Ciclo-Semaforo-Giallo" style="ellipse;whiteSpace=wrap;html=1;aspect=fixed;" vertex="1" parent="1">
          <mxGeometry x="679" y="347" width="155" height="155" as="geometry" />
        </mxCell>
        <mxCell id="DORprSOkZNdKOaUMTTgd-11" value="Stato-Fuori-Servizio" style="ellipse;whiteSpace=wrap;html=1;aspect=fixed;" vertex="1" parent="1">
          <mxGeometry x="118" y="649" width="155" height="155" as="geometry" />
        </mxCell>
        <mxCell id="DORprSOkZNdKOaUMTTgd-12" value="Stato-Uscita-Fuori-Servizio" style="ellipse;whiteSpace=wrap;html=1;aspect=fixed;" vertex="1" parent="1">
          <mxGeometry x="529" y="649" width="155" height="155" as="geometry" />
        </mxCell>
        <mxCell id="DORprSOkZNdKOaUMTTgd-13" value="Lampeggio-Fuori-Servizio" style="ellipse;whiteSpace=wrap;html=1;aspect=fixed;" vertex="1" parent="1">
          <mxGeometry x="118" y="991" width="155" height="155" as="geometry" />
        </mxCell>
        <mxCell id="DORprSOkZNdKOaUMTTgd-14" value="" style="endArrow=classic;html=1;rounded=0;exitX=1;exitY=0.5;exitDx=0;exitDy=0;entryX=0;entryY=0.5;entryDx=0;entryDy=0;" edge="1" parent="1" source="DORprSOkZNdKOaUMTTgd-1" target="DORprSOkZNdKOaUMTTgd-8">
          <mxGeometry width="50" height="50" relative="1" as="geometry">
            <mxPoint x="-40" y="452" as="sourcePoint" />
            <mxPoint x="10" y="402" as="targetPoint" />
          </mxGeometry>
        </mxCell>
        <mxCell id="DORprSOkZNdKOaUMTTgd-15" value="Bool = 1" style="text;html=1;strokeColor=none;fillColor=none;align=center;verticalAlign=middle;whiteSpace=wrap;rounded=0;" vertex="1" parent="1">
          <mxGeometry x="-28" y="389" width="60" height="30" as="geometry" />
        </mxCell>
        <mxCell id="DORprSOkZNdKOaUMTTgd-16" value="" style="endArrow=classic;html=1;rounded=0;exitX=1;exitY=0.5;exitDx=0;exitDy=0;entryX=0;entryY=0.5;entryDx=0;entryDy=0;" edge="1" parent="1" source="DORprSOkZNdKOaUMTTgd-8" target="DORprSOkZNdKOaUMTTgd-10">
          <mxGeometry width="50" height="50" relative="1" as="geometry">
            <mxPoint x="391" y="571" as="sourcePoint" />
            <mxPoint x="441" y="521" as="targetPoint" />
          </mxGeometry>
        </mxCell>
        <mxCell id="DORprSOkZNdKOaUMTTgd-17" value="" style="endArrow=classic;html=1;rounded=0;exitX=1;exitY=0.5;exitDx=0;exitDy=0;entryX=0;entryY=0.5;entryDx=0;entryDy=0;" edge="1" parent="1" source="DORprSOkZNdKOaUMTTgd-10" target="DORprSOkZNdKOaUMTTgd-9">
          <mxGeometry width="50" height="50" relative="1" as="geometry">
            <mxPoint x="891" y="637" as="sourcePoint" />
            <mxPoint x="941" y="587" as="targetPoint" />
          </mxGeometry>
        </mxCell>
        <mxCell id="DORprSOkZNdKOaUMTTgd-20" value="" style="endArrow=classic;html=1;rounded=0;exitX=0;exitY=0;exitDx=0;exitDy=0;entryX=1;entryY=0;entryDx=0;entryDy=0;" edge="1" parent="1" source="DORprSOkZNdKOaUMTTgd-9" target="DORprSOkZNdKOaUMTTgd-8">
          <mxGeometry width="50" height="50" relative="1" as="geometry">
            <mxPoint x="914" y="310" as="sourcePoint" />
            <mxPoint x="964" y="260" as="targetPoint" />
            <Array as="points">
              <mxPoint x="966" y="292" />
              <mxPoint x="727" y="275" />
              <mxPoint x="471" y="301" />
            </Array>
          </mxGeometry>
        </mxCell>
        <mxCell id="DORprSOkZNdKOaUMTTgd-21" value="" style="endArrow=classic;html=1;rounded=0;exitX=0.5;exitY=1;exitDx=0;exitDy=0;entryX=0.5;entryY=0;entryDx=0;entryDy=0;" edge="1" parent="1" source="DORprSOkZNdKOaUMTTgd-8" target="DORprSOkZNdKOaUMTTgd-11">
          <mxGeometry width="50" height="50" relative="1" as="geometry">
            <mxPoint x="253" y="557" as="sourcePoint" />
            <mxPoint x="303" y="507" as="targetPoint" />
          </mxGeometry>
        </mxCell>
        <mxCell id="DORprSOkZNdKOaUMTTgd-22" value="" style="endArrow=classic;html=1;rounded=0;exitX=0;exitY=0;exitDx=0;exitDy=0;entryX=1;entryY=1;entryDx=0;entryDy=0;" edge="1" parent="1" source="DORprSOkZNdKOaUMTTgd-12" target="DORprSOkZNdKOaUMTTgd-8">
          <mxGeometry width="50" height="50" relative="1" as="geometry">
            <mxPoint x="453" y="668" as="sourcePoint" />
            <mxPoint x="503" y="618" as="targetPoint" />
          </mxGeometry>
        </mxCell>
        <mxCell id="DORprSOkZNdKOaUMTTgd-23" value="" style="endArrow=classic;html=1;rounded=0;entryX=0;entryY=1;entryDx=0;entryDy=0;exitX=0;exitY=0;exitDx=0;exitDy=0;" edge="1" parent="1" source="DORprSOkZNdKOaUMTTgd-13" target="DORprSOkZNdKOaUMTTgd-11">
          <mxGeometry width="50" height="50" relative="1" as="geometry">
            <mxPoint x="177" y="935" as="sourcePoint" />
            <mxPoint x="227" y="885" as="targetPoint" />
          </mxGeometry>
        </mxCell>
        <mxCell id="DORprSOkZNdKOaUMTTgd-24" value="" style="endArrow=classic;html=1;rounded=0;entryX=1;entryY=0;entryDx=0;entryDy=0;exitX=1;exitY=1;exitDx=0;exitDy=0;" edge="1" parent="1" source="DORprSOkZNdKOaUMTTgd-11" target="DORprSOkZNdKOaUMTTgd-13">
          <mxGeometry width="50" height="50" relative="1" as="geometry">
            <mxPoint x="227" y="940" as="sourcePoint" />
            <mxPoint x="277" y="890" as="targetPoint" />
          </mxGeometry>
        </mxCell>
        <mxCell id="DORprSOkZNdKOaUMTTgd-25" value="" style="endArrow=classic;html=1;rounded=0;exitX=1;exitY=0.5;exitDx=0;exitDy=0;entryX=0;entryY=0.5;entryDx=0;entryDy=0;" edge="1" parent="1" source="DORprSOkZNdKOaUMTTgd-11" target="DORprSOkZNdKOaUMTTgd-12">
          <mxGeometry width="50" height="50" relative="1" as="geometry">
            <mxPoint x="430" y="806" as="sourcePoint" />
            <mxPoint x="480" y="756" as="targetPoint" />
          </mxGeometry>
        </mxCell>
        <mxCell id="DORprSOkZNdKOaUMTTgd-26" value="Timer Verde" style="text;html=1;strokeColor=none;fillColor=none;align=center;verticalAlign=middle;whiteSpace=wrap;rounded=0;" vertex="1" parent="1">
          <mxGeometry x="418" y="399" width="88" height="30" as="geometry" />
        </mxCell>
        <mxCell id="DORprSOkZNdKOaUMTTgd-28" value="Timer Giallo" style="text;html=1;strokeColor=none;fillColor=none;align=center;verticalAlign=middle;whiteSpace=wrap;rounded=0;" vertex="1" parent="1">
          <mxGeometry x="895" y="391" width="88" height="30" as="geometry" />
        </mxCell>
        <mxCell id="DORprSOkZNdKOaUMTTgd-30" value="Timer Rosso" style="text;html=1;strokeColor=none;fillColor=none;align=center;verticalAlign=middle;whiteSpace=wrap;rounded=0;rotation=0;" vertex="1" parent="1">
          <mxGeometry x="684" y="241" width="88" height="30" as="geometry" />
        </mxCell>
        <mxCell id="DORprSOkZNdKOaUMTTgd-31" value="Input Clock Notturno = 1&lt;br&gt;Input Fuori Servizio = 1" style="text;html=1;strokeColor=none;fillColor=none;align=center;verticalAlign=middle;whiteSpace=wrap;rounded=0;" vertex="1" parent="1">
          <mxGeometry x="46" y="537" width="155" height="30" as="geometry" />
        </mxCell>
        <mxCell id="DORprSOkZNdKOaUMTTgd-32" value="Timer Fuori Servizio" style="text;html=1;strokeColor=none;fillColor=none;align=center;verticalAlign=middle;whiteSpace=wrap;rounded=0;" vertex="1" parent="1">
          <mxGeometry x="253" y="890" width="155" height="30" as="geometry" />
        </mxCell>
        <mxCell id="DORprSOkZNdKOaUMTTgd-33" value="Timer Fuori Servizio" style="text;html=1;strokeColor=none;fillColor=none;align=center;verticalAlign=middle;whiteSpace=wrap;rounded=0;" vertex="1" parent="1">
          <mxGeometry x="-5" y="890" width="155" height="30" as="geometry" />
        </mxCell>
        <mxCell id="DORprSOkZNdKOaUMTTgd-34" value="Input Clock Notturno = 0&lt;br&gt;Input Fuori Servizio = 0" style="text;html=1;strokeColor=none;fillColor=none;align=center;verticalAlign=middle;whiteSpace=wrap;rounded=0;" vertex="1" parent="1">
          <mxGeometry x="313" y="692" width="155" height="30" as="geometry" />
        </mxCell>
      </root>
    </mxGraphModel>
  </diagram>
</mxfile>
